<svg width="14" height="23" viewBox="0 0 14 23" fill="none" xmlns="http://www.w3.org/2000/svg">
<g clip-path="url(#clip0_6566_5075)">
<path d="M3.50028 22.4148C5.43189 22.4148 6.99958 20.7721 6.99958 18.7481V15.0814H3.50028C1.56866 15.0814 0.000976562 16.7241 0.000976562 18.7481C0.000976562 20.7721 1.56866 22.4148 3.50028 22.4148Z" fill="#0ACF83"/>
<path d="M0.000976562 11.4146C0.000976562 9.39059 1.56866 7.74792 3.50028 7.74792H6.99958V15.0813H3.50028C1.56866 15.0813 0.000976562 13.4386 0.000976562 11.4146Z" fill="#A259FF"/>
<path d="M0.000976562 4.08146C0.000976562 2.05746 1.56866 0.414795 3.50028 0.414795H6.99958V7.74813H3.50028C1.56866 7.74813 0.000976562 6.10546 0.000976562 4.08146Z" fill="#F24E1E"/>
<path d="M7 0.414795H10.4993C12.4309 0.414795 13.9986 2.05746 13.9986 4.08146C13.9986 6.10546 12.4309 7.74813 10.4993 7.74813H7V0.414795Z" fill="#FF7262"/>
<path d="M13.9986 11.4146C13.9986 13.4386 12.4309 15.0813 10.4993 15.0813C8.56769 15.0813 7 13.4386 7 11.4146C7 9.39059 8.56769 7.74792 10.4993 7.74792C12.4309 7.74792 13.9986 9.39059 13.9986 11.4146Z" fill="#1ABCFE"/>
</g>
<defs>
<clipPath id="clip0_6566_5075">
<rect width="14" height="22" fill="white" transform="translate(0 0.414795)"/>
</clipPath>
</defs>
</svg>
